<svg xmlns="http://www.w3.org/2000/svg" width="38" height="38" viewBox="0 0 38 38" fill="none">
<path d="M0 9.04762C0 4.05076 4.05076 0 9.04762 0H28.9524C33.9492 0 38 4.05076 38 9.04762V28.9524C38 33.9492 33.9492 38 28.9524 38H9.04762C4.05076 38 0 33.9492 0 28.9524V9.04762Z" fill="#2266E1"/>
<path fill-rule="evenodd" clip-rule="evenodd" d="M28.9524 1.08571H9.04762C4.65038 1.08571 1.08571 4.65038 1.08571 9.04762V28.9524C1.08571 33.3496 4.65038 36.9143 9.04762 36.9143H28.9524C33.3496 36.9143 36.9143 33.3496 36.9143 28.9524V9.04762C36.9143 4.65038 33.3496 1.08571 28.9524 1.08571ZM9.04762 0C4.05076 0 0 4.05076 0 9.04762V28.9524C0 33.9492 4.05076 38 9.04762 38H28.9524C33.9492 38 38 33.9492 38 28.9524V9.04762C38 4.05076 33.9492 0 28.9524 0H9.04762Z" fill="#00215B"/>
<path opacity="0.5" fill-rule="evenodd" clip-rule="evenodd" d="M23.5238 10.8747C23.5238 12.0837 22.5304 13.0638 21.3049 13.0638L20.415 13.0638C16.7878 13.0638 13.8474 15.9646 13.8474 19.5429C13.8474 23.1212 16.7878 26.0219 20.415 26.0219L20.8081 26.0219C22.0336 26.0219 23.027 27.002 23.027 28.211C23.027 29.4199 22.0336 30.4 20.8081 30.4L20.415 30.4C14.3368 30.4 9.40951 25.5391 9.40951 19.5429C9.40952 13.5466 14.3368 8.68571 20.415 8.68571L21.3049 8.68572C22.5304 8.68572 23.5238 9.66578 23.5238 10.8747Z" fill="white"/>
<path opacity="0.7" fill-rule="evenodd" clip-rule="evenodd" d="M24.9714 10.8747C24.9714 12.0837 23.978 13.0638 22.7525 13.0638L21.8626 13.0638C18.2354 13.0638 15.295 15.9646 15.295 19.5429C15.295 23.1212 18.2354 26.0219 21.8626 26.0219L22.2557 26.0219C23.4812 26.0219 24.4746 27.002 24.4746 28.211C24.4746 29.4199 23.4812 30.4 22.2557 30.4L21.8626 30.4C15.7844 30.4 10.8571 25.5391 10.8571 19.5429C10.8571 13.5466 15.7845 8.68571 21.8626 8.68571L22.7525 8.68572C23.978 8.68572 24.9714 9.66578 24.9714 10.8747Z" fill="white"/>
<path fill-rule="evenodd" clip-rule="evenodd" d="M26.419 10.8747C26.419 12.0837 25.4511 13.0638 24.257 13.0638L23.3899 13.0638C19.8557 13.0638 16.9907 15.9646 16.9907 19.5429C16.9907 23.1212 19.8557 26.0219 23.3899 26.0219L23.7729 26.0219C24.967 26.0219 25.935 27.002 25.935 28.211C25.935 29.4199 24.967 30.4 23.7729 30.4L23.3899 30.4C17.4676 30.4 12.6667 25.5391 12.6667 19.5429C12.6667 13.5466 17.4676 8.68571 23.3899 8.68571L24.257 8.68572C25.4511 8.68572 26.419 9.66578 26.419 10.8747Z" fill="white"/>
</svg>